<mxfile host="app.diagrams.net" modified="2024-06-13T00:33:57.183Z" agent="Mozilla/5.0 (Windows NT 10.0; Win64; x64) AppleWebKit/537.36 (KHTML, like Gecko) Chrome/125.0.0.0 Safari/537.36" etag="WwJh168MODqJeYB-NZ_7" version="24.5.2" type="device">
  <diagram name="Page-1" id="Ea9ezm5jTCkAF6sLxRQj">
    <mxGraphModel dx="1843" dy="813" grid="1" gridSize="10" guides="1" tooltips="1" connect="1" arrows="1" fold="1" page="1" pageScale="1" pageWidth="850" pageHeight="1100" math="0" shadow="0">
      <root>
        <mxCell id="0" />
        <mxCell id="1" parent="0" />
        <mxCell id="a9SoEQROZhFhmeeJvQNm-13" style="edgeStyle=orthogonalEdgeStyle;rounded=0;orthogonalLoop=1;jettySize=auto;html=1;entryX=0.5;entryY=0;entryDx=0;entryDy=0;" parent="1" source="a9SoEQROZhFhmeeJvQNm-1" target="a9SoEQROZhFhmeeJvQNm-2" edge="1">
          <mxGeometry relative="1" as="geometry" />
        </mxCell>
        <mxCell id="a9SoEQROZhFhmeeJvQNm-1" value="Start" style="rounded=0;whiteSpace=wrap;html=1;fillColor=#dae8fc;strokeColor=#6c8ebf;" parent="1" vertex="1">
          <mxGeometry x="365" y="200" width="120" height="60" as="geometry" />
        </mxCell>
        <mxCell id="a9SoEQROZhFhmeeJvQNm-14" style="edgeStyle=orthogonalEdgeStyle;rounded=0;orthogonalLoop=1;jettySize=auto;html=1;entryX=0.5;entryY=0;entryDx=0;entryDy=0;" parent="1" source="a9SoEQROZhFhmeeJvQNm-2" target="a9SoEQROZhFhmeeJvQNm-3" edge="1">
          <mxGeometry relative="1" as="geometry" />
        </mxCell>
        <mxCell id="a9SoEQROZhFhmeeJvQNm-2" value="Data Collection" style="rounded=0;whiteSpace=wrap;html=1;fillColor=#fff2cc;strokeColor=#d6b656;" parent="1" vertex="1">
          <mxGeometry x="365" y="300" width="120" height="60" as="geometry" />
        </mxCell>
        <mxCell id="a9SoEQROZhFhmeeJvQNm-15" style="edgeStyle=orthogonalEdgeStyle;rounded=0;orthogonalLoop=1;jettySize=auto;html=1;entryX=0.5;entryY=0;entryDx=0;entryDy=0;" parent="1" source="a9SoEQROZhFhmeeJvQNm-3" target="a9SoEQROZhFhmeeJvQNm-6" edge="1">
          <mxGeometry relative="1" as="geometry" />
        </mxCell>
        <mxCell id="a9SoEQROZhFhmeeJvQNm-16" style="edgeStyle=orthogonalEdgeStyle;rounded=0;orthogonalLoop=1;jettySize=auto;html=1;entryX=0.5;entryY=0;entryDx=0;entryDy=0;" parent="1" source="a9SoEQROZhFhmeeJvQNm-3" target="a9SoEQROZhFhmeeJvQNm-4" edge="1">
          <mxGeometry relative="1" as="geometry" />
        </mxCell>
        <mxCell id="a9SoEQROZhFhmeeJvQNm-3" value="Data Preprocess" style="rounded=0;whiteSpace=wrap;html=1;fillColor=#fff2cc;strokeColor=#d6b656;" parent="1" vertex="1">
          <mxGeometry x="365" y="400" width="120" height="60" as="geometry" />
        </mxCell>
        <mxCell id="a9SoEQROZhFhmeeJvQNm-18" style="edgeStyle=orthogonalEdgeStyle;rounded=0;orthogonalLoop=1;jettySize=auto;html=1;entryX=1;entryY=0.5;entryDx=0;entryDy=0;" parent="1" source="a9SoEQROZhFhmeeJvQNm-4" target="a9SoEQROZhFhmeeJvQNm-8" edge="1">
          <mxGeometry relative="1" as="geometry" />
        </mxCell>
        <mxCell id="a9SoEQROZhFhmeeJvQNm-4" value="Data Cleaning" style="rounded=0;whiteSpace=wrap;html=1;fillColor=#fff2cc;strokeColor=#d6b656;" parent="1" vertex="1">
          <mxGeometry x="448" y="500" width="120" height="60" as="geometry" />
        </mxCell>
        <mxCell id="a9SoEQROZhFhmeeJvQNm-17" style="edgeStyle=orthogonalEdgeStyle;rounded=0;orthogonalLoop=1;jettySize=auto;html=1;entryX=0;entryY=0.5;entryDx=0;entryDy=0;" parent="1" source="a9SoEQROZhFhmeeJvQNm-6" target="a9SoEQROZhFhmeeJvQNm-8" edge="1">
          <mxGeometry relative="1" as="geometry" />
        </mxCell>
        <mxCell id="a9SoEQROZhFhmeeJvQNm-6" value="Data Selection" style="rounded=0;whiteSpace=wrap;html=1;fillColor=#fff2cc;strokeColor=#d6b656;" parent="1" vertex="1">
          <mxGeometry x="270" y="500" width="120" height="60" as="geometry" />
        </mxCell>
        <mxCell id="LziMF2JXRMm4019k1miu-2" style="edgeStyle=orthogonalEdgeStyle;rounded=0;orthogonalLoop=1;jettySize=auto;html=1;entryX=0.5;entryY=0;entryDx=0;entryDy=0;" edge="1" parent="1" source="a9SoEQROZhFhmeeJvQNm-8" target="a9SoEQROZhFhmeeJvQNm-9">
          <mxGeometry relative="1" as="geometry">
            <Array as="points">
              <mxPoint x="425" y="650" />
              <mxPoint x="270" y="650" />
            </Array>
          </mxGeometry>
        </mxCell>
        <mxCell id="LziMF2JXRMm4019k1miu-3" style="edgeStyle=orthogonalEdgeStyle;rounded=0;orthogonalLoop=1;jettySize=auto;html=1;entryX=0.5;entryY=0;entryDx=0;entryDy=0;" edge="1" parent="1" source="a9SoEQROZhFhmeeJvQNm-8" target="TgF2eUJxjwI0m_D20mRP-1">
          <mxGeometry relative="1" as="geometry">
            <Array as="points">
              <mxPoint x="425" y="650" />
              <mxPoint x="580" y="650" />
            </Array>
          </mxGeometry>
        </mxCell>
        <mxCell id="LziMF2JXRMm4019k1miu-5" style="edgeStyle=orthogonalEdgeStyle;rounded=0;orthogonalLoop=1;jettySize=auto;html=1;entryX=0.5;entryY=0;entryDx=0;entryDy=0;" edge="1" parent="1" source="a9SoEQROZhFhmeeJvQNm-8" target="LziMF2JXRMm4019k1miu-4">
          <mxGeometry relative="1" as="geometry" />
        </mxCell>
        <mxCell id="a9SoEQROZhFhmeeJvQNm-8" value="Data Mining" style="rounded=0;whiteSpace=wrap;html=1;fillColor=#fff2cc;strokeColor=#d6b656;" parent="1" vertex="1">
          <mxGeometry x="365" y="580" width="120" height="60" as="geometry" />
        </mxCell>
        <mxCell id="a9SoEQROZhFhmeeJvQNm-21" style="edgeStyle=orthogonalEdgeStyle;rounded=0;orthogonalLoop=1;jettySize=auto;html=1;entryX=0;entryY=0.5;entryDx=0;entryDy=0;" parent="1" source="a9SoEQROZhFhmeeJvQNm-9" target="a9SoEQROZhFhmeeJvQNm-11" edge="1">
          <mxGeometry relative="1" as="geometry">
            <Array as="points">
              <mxPoint x="350" y="710" />
              <mxPoint x="350" y="790" />
            </Array>
          </mxGeometry>
        </mxCell>
        <mxCell id="a9SoEQROZhFhmeeJvQNm-9" value="Random Forest" style="rounded=0;whiteSpace=wrap;html=1;fillColor=#fff2cc;strokeColor=#d6b656;" parent="1" vertex="1">
          <mxGeometry x="210" y="680" width="120" height="60" as="geometry" />
        </mxCell>
        <mxCell id="a9SoEQROZhFhmeeJvQNm-23" style="edgeStyle=orthogonalEdgeStyle;rounded=0;orthogonalLoop=1;jettySize=auto;html=1;entryX=0.5;entryY=0;entryDx=0;entryDy=0;" parent="1" source="a9SoEQROZhFhmeeJvQNm-11" edge="1" target="TgF2eUJxjwI0m_D20mRP-5">
          <mxGeometry relative="1" as="geometry">
            <mxPoint x="425" y="840" as="targetPoint" />
          </mxGeometry>
        </mxCell>
        <mxCell id="a9SoEQROZhFhmeeJvQNm-11" value="Result Evaluation" style="rounded=0;whiteSpace=wrap;html=1;fillColor=#fff2cc;strokeColor=#d6b656;" parent="1" vertex="1">
          <mxGeometry x="365" y="760" width="120" height="60" as="geometry" />
        </mxCell>
        <mxCell id="TgF2eUJxjwI0m_D20mRP-4" style="edgeStyle=orthogonalEdgeStyle;rounded=0;orthogonalLoop=1;jettySize=auto;html=1;entryX=1;entryY=0.5;entryDx=0;entryDy=0;" parent="1" source="TgF2eUJxjwI0m_D20mRP-1" target="a9SoEQROZhFhmeeJvQNm-11" edge="1">
          <mxGeometry relative="1" as="geometry">
            <Array as="points">
              <mxPoint x="500" y="710" />
              <mxPoint x="500" y="790" />
            </Array>
          </mxGeometry>
        </mxCell>
        <mxCell id="TgF2eUJxjwI0m_D20mRP-1" value="Gradient Boost" style="rounded=0;whiteSpace=wrap;html=1;fillColor=#fff2cc;strokeColor=#d6b656;" parent="1" vertex="1">
          <mxGeometry x="520" y="680" width="120" height="60" as="geometry" />
        </mxCell>
        <mxCell id="TgF2eUJxjwI0m_D20mRP-5" value="End" style="rounded=0;whiteSpace=wrap;html=1;fillColor=#dae8fc;strokeColor=#6c8ebf;" parent="1" vertex="1">
          <mxGeometry x="365" y="850" width="120" height="60" as="geometry" />
        </mxCell>
        <mxCell id="LziMF2JXRMm4019k1miu-6" style="edgeStyle=orthogonalEdgeStyle;rounded=0;orthogonalLoop=1;jettySize=auto;html=1;entryX=0.5;entryY=0;entryDx=0;entryDy=0;" edge="1" parent="1" source="LziMF2JXRMm4019k1miu-4" target="a9SoEQROZhFhmeeJvQNm-11">
          <mxGeometry relative="1" as="geometry" />
        </mxCell>
        <mxCell id="LziMF2JXRMm4019k1miu-4" value="Linear Regression" style="rounded=0;whiteSpace=wrap;html=1;fillColor=#fff2cc;strokeColor=#d6b656;" vertex="1" parent="1">
          <mxGeometry x="365" y="680" width="120" height="60" as="geometry" />
        </mxCell>
      </root>
    </mxGraphModel>
  </diagram>
</mxfile>
